<svg xmlns="http://www.w3.org/2000/svg" viewBox="0 0 156.67 156.67"><g id="Layer_2" data-name="Layer 2"><g id="svg909"><path id="Icon_awesome-facebook-square" data-name="Icon awesome-facebook-square" d="M139.89,0H16.79A16.79,16.79,0,0,0,0,16.79v123.1a16.79,16.79,0,0,0,16.79,16.78h48V103.41h-22V78.34h22V59.23c0-21.74,12.93-33.74,32.75-33.74A132.92,132.92,0,0,1,117,27.18V48.51H106c-10.77,0-14.13,6.69-14.13,13.55V78.34h24l-3.85,25.07H91.89v53.26h48a16.78,16.78,0,0,0,16.78-16.78V16.79A16.79,16.79,0,0,0,139.89,0Z"/></g></g></svg>