<svg xmlns="http://www.w3.org/2000/svg" viewBox="0 0 156.67 156.67"><g id="Layer_2" data-name="Layer 2"><g id="svg909"><path id="Icon_zocial-instagram" data-name="Icon zocial-instagram" d="M142.76.47a18.64,18.64,0,0,1,8.57,4.87,17.28,17.28,0,0,1,4.75,8.17c.55,2.17.58,4.23.58,64.69,0,67.93.12,64.19-1.66,68a18.28,18.28,0,0,1-8.9,8.85c-3.95,1.74-.1,1.65-68.55,1.56l-63.06-.06-2-.68A18.53,18.53,0,0,1,.78,144.14l-.68-2L0,79.12C0,9.07-.2,14.31,2,9.78A18.23,18.23,0,0,1,9.78,2c4.47-2.2-.61-2,68.7-2C131.46,0,141.2.1,142.76.47Zm-122,18.64c-2.51,1.78-2.57,2-2.67,13.63C18,44.09,18,44.68,19.91,46.48c1.68,1.66,2.48,1.75,13.56,1.72l10.1,0L45,47.43a7.36,7.36,0,0,0,2.26-2.15l.92-1.34,0-10.14c0-5.54-.09-10.59-.24-11.17a5.74,5.74,0,0,0-3.13-3.86L43.26,18l-10.62.09-10.59.09ZM72.23,48.84A30.37,30.37,0,0,0,48.78,72.41a37.27,37.27,0,0,0-.34,10,30.83,30.83,0,0,0,15.7,22.53,32.89,32.89,0,0,0,8.08,3c.59.06,1.81.25,2.73.4A30.11,30.11,0,0,0,101.68,59.4a30.56,30.56,0,0,0-20.2-11A31.88,31.88,0,0,0,72.23,48.84Zm53.3,19.87a48.54,48.54,0,0,1-4,31.07,45,45,0,0,1-9.15,12.58A47.74,47.74,0,0,1,70.67,126c-18.43-2.72-34.38-17.23-39-35.51A47.6,47.6,0,0,1,30.41,73.3a33.69,33.69,0,0,1,1.26-6.61c.09-.16.06-.28-.09-.31-1.17-.12-13.08-.09-13.29.06s-.25,13.69-.21,34.17l.09,34,.92,1.31a7.56,7.56,0,0,0,2.3,2l1.37.7,55.9-.09,55.87-.06,1.26-.83a8.06,8.06,0,0,0,2-2l.73-1.16.09-33.83c0-18.61,0-33.95-.06-34.13s-2.54-.31-6.83-.31H125Z"/></g></g></svg>