<svg xmlns="http://www.w3.org/2000/svg" viewBox="0 0 156.67 156.67"><g id="Layer_2" data-name="Layer 2"><g id="svg909"><path id="Icon_ionic-logo-youtube" data-name="Icon ionic-logo-youtube" d="M155.66,34.6c0-18.36-10.13-33.13-22.65-33.13C116.06.41,98.76,0,81.1,0H75.6C58,0,40.65.41,23.7,1.47,11.2,1.47,1.08,16.32,1.08,34.68Q-.07,56.46,0,78.25t1.05,43.61c0,18.36,10.13,33.25,22.61,33.25,17.81,1.1,36.08,1.59,54.66,1.55s36.83-.44,54.66-1.55c12.51,0,22.64-14.89,22.64-33.25.74-14.57,1.08-29.09,1-43.65S156.39,49.15,155.66,34.6Zm-92.3,83.67V38.1l44.37,40.06Z"/></g></g></svg>